<?xml version="1.0" encoding="UTF-8" standalone="no"?>
<!DOCTYPE svg PUBLIC "-//W3C//DTD SVG 1.1//EN"
 "http://www.w3.org/Graphics/SVG/1.1/DTD/svg11.dtd">
<!-- Generated by graphviz version 2.43.0 (0)
 -->
<!-- Title: ERP_AI_Automation Pages: 1 -->
<svg width="576pt" height="220pt"
 viewBox="0.00 0.00 576.00 220.32" xmlns="http://www.w3.org/2000/svg" xmlns:xlink="http://www.w3.org/1999/xlink">
<g id="graph0" class="graph" transform="scale(0.36 0.36) rotate(0) translate(4 609.17)">
<title>ERP_AI_Automation</title>
<polygon fill="white" stroke="transparent" points="-4,4 -4,-609.17 1599.02,-609.17 1599.02,4 -4,4"/>
<!-- Inputs -->
<g id="node1" class="node">
<title>Inputs</title>
<polygon fill="lightyellow" stroke="black" points="452.04,-361.08 92.48,-361.08 -0.01,-255.08 359.54,-255.08 452.04,-361.08"/>
<text text-anchor="middle" x="226.01" y="-319.38" font-family="Times,serif" font-size="14.00">Inputs</text>
<text text-anchor="middle" x="226.01" y="-304.38" font-family="Times,serif" font-size="14.00">(Email, Docs, Voice, Images,</text>
<text text-anchor="middle" x="226.01" y="-289.38" font-family="Times,serif" font-size="14.00">Transactions, Sensors)</text>
</g>
<!-- NLP -->
<g id="node2" class="node">
<title>NLP</title>
<polygon fill="lightblue" stroke="black" points="703.02,-405.58 488.02,-405.58 488.02,-352.58 703.02,-352.58 703.02,-405.58"/>
<text text-anchor="middle" x="595.52" y="-390.38" font-family="Times,serif" font-size="14.00">NLP / NLU</text>
<text text-anchor="middle" x="595.52" y="-375.38" font-family="Times,serif" font-size="14.00">(Intent &amp; Entity Extraction,</text>
<text text-anchor="middle" x="595.52" y="-360.38" font-family="Times,serif" font-size="14.00">Chat/Voice Interfaces)</text>
</g>
<!-- Inputs&#45;&gt;NLP -->
<g id="edge1" class="edge">
<title>Inputs&#45;&gt;NLP</title>
<path fill="none" stroke="black" d="M442.12,-349.64C454.26,-351.98 466.2,-354.29 477.74,-356.52"/>
<polygon fill="black" stroke="black" points="477.29,-360 487.77,-358.46 478.61,-353.13 477.29,-360"/>
</g>
<!-- Vision -->
<g id="node3" class="node">
<title>Vision</title>
<polygon fill="lightblue" stroke="black" points="674.02,-334.58 517.02,-334.58 517.02,-281.58 674.02,-281.58 674.02,-334.58"/>
<text text-anchor="middle" x="595.52" y="-319.38" font-family="Times,serif" font-size="14.00">Vision AI</text>
<text text-anchor="middle" x="595.52" y="-304.38" font-family="Times,serif" font-size="14.00">(OCR, QC, Barcode,</text>
<text text-anchor="middle" x="595.52" y="-289.38" font-family="Times,serif" font-size="14.00">Damage Detection)</text>
</g>
<!-- Inputs&#45;&gt;Vision -->
<g id="edge2" class="edge">
<title>Inputs&#45;&gt;Vision</title>
<path fill="none" stroke="black" d="M405.92,-308.08C441.02,-308.08 476.35,-308.08 506.8,-308.08"/>
<polygon fill="black" stroke="black" points="506.93,-311.58 516.93,-308.08 506.93,-304.58 506.93,-311.58"/>
</g>
<!-- Fraud -->
<g id="node4" class="node">
<title>Fraud</title>
<polygon fill="lightblue" stroke="black" points="692.52,-263.08 498.52,-263.08 498.52,-195.08 692.52,-195.08 692.52,-263.08"/>
<text text-anchor="middle" x="595.52" y="-247.88" font-family="Times,serif" font-size="14.00">Fraud Detection</text>
<text text-anchor="middle" x="595.52" y="-232.88" font-family="Times,serif" font-size="14.00">(Anomaly Detection,</text>
<text text-anchor="middle" x="595.52" y="-217.88" font-family="Times,serif" font-size="14.00">Duplicate Invoices,</text>
<text text-anchor="middle" x="595.52" y="-202.88" font-family="Times,serif" font-size="14.00">Suspicious Transactions)</text>
</g>
<!-- Inputs&#45;&gt;Fraud -->
<g id="edge3" class="edge">
<title>Inputs&#45;&gt;Fraud</title>
<path fill="none" stroke="black" d="M377.55,-275.72C414.72,-267.73 453.76,-259.34 488.32,-251.91"/>
<polygon fill="black" stroke="black" points="489.38,-255.27 498.42,-249.74 487.91,-248.42 489.38,-255.27"/>
</g>
<!-- Reason -->
<g id="node5" class="node">
<title>Reason</title>
<polygon fill="lightgreen" stroke="black" points="949.02,-342.08 739.02,-342.08 739.02,-274.08 949.02,-274.08 949.02,-342.08"/>
<text text-anchor="middle" x="844.02" y="-326.88" font-family="Times,serif" font-size="14.00">Reasoning Engine</text>
<text text-anchor="middle" x="844.02" y="-311.88" font-family="Times,serif" font-size="14.00">(Policy Checks,</text>
<text text-anchor="middle" x="844.02" y="-296.88" font-family="Times,serif" font-size="14.00">Optimization,</text>
<text text-anchor="middle" x="844.02" y="-281.88" font-family="Times,serif" font-size="14.00">Multi&#45;Agent Orchestration)</text>
</g>
<!-- NLP&#45;&gt;Reason -->
<g id="edge4" class="edge">
<title>NLP&#45;&gt;Reason</title>
<path fill="none" stroke="black" d="M688.66,-352.54C701.87,-348.74 715.58,-344.79 729.14,-340.88"/>
<polygon fill="black" stroke="black" points="730.34,-344.18 738.98,-338.05 728.4,-337.46 730.34,-344.18"/>
</g>
<!-- Vision&#45;&gt;Reason -->
<g id="edge5" class="edge">
<title>Vision&#45;&gt;Reason</title>
<path fill="none" stroke="black" d="M674.18,-308.08C691.45,-308.08 710.1,-308.08 728.49,-308.08"/>
<polygon fill="black" stroke="black" points="728.68,-311.58 738.68,-308.08 728.68,-304.58 728.68,-311.58"/>
</g>
<!-- Fraud&#45;&gt;Reason -->
<g id="edge6" class="edge">
<title>Fraud&#45;&gt;Reason</title>
<path fill="none" stroke="black" d="M692.53,-259.85C704.48,-263.68 716.79,-267.63 728.97,-271.53"/>
<polygon fill="black" stroke="black" points="728.12,-274.93 738.71,-274.65 730.25,-268.27 728.12,-274.93"/>
</g>
<!-- Finance -->
<g id="node6" class="node">
<title>Finance</title>
<ellipse fill="lightpink" stroke="black" cx="1145.54" cy="-557.08" rx="91.43" ry="48.17"/>
<text text-anchor="middle" x="1145.54" y="-575.88" font-family="Times,serif" font-size="14.00">Finance/AP&#45;AR</text>
<text text-anchor="middle" x="1145.54" y="-560.88" font-family="Times,serif" font-size="14.00">(Auto Invoicing,</text>
<text text-anchor="middle" x="1145.54" y="-545.88" font-family="Times,serif" font-size="14.00">3&#45;Way Match,</text>
<text text-anchor="middle" x="1145.54" y="-530.88" font-family="Times,serif" font-size="14.00">Cash App)</text>
</g>
<!-- Reason&#45;&gt;Finance -->
<g id="edge7" class="edge">
<title>Reason&#45;&gt;Finance</title>
<path fill="none" stroke="black" d="M861.88,-342.21C884.45,-384.6 928.29,-456.53 985.02,-499.08 1004.91,-514 1029.02,-525.39 1052.4,-533.95"/>
<polygon fill="black" stroke="black" points="1051.42,-537.31 1062.02,-537.33 1053.74,-530.71 1051.42,-537.31"/>
</g>
<!-- Procurement -->
<g id="node7" class="node">
<title>Procurement</title>
<ellipse fill="lightpink" stroke="black" cx="1145.54" cy="-453.08" rx="113.69" ry="37.45"/>
<text text-anchor="middle" x="1145.54" y="-464.38" font-family="Times,serif" font-size="14.00">Procurement</text>
<text text-anchor="middle" x="1145.54" y="-449.38" font-family="Times,serif" font-size="14.00">(RFQs, PO Creation,</text>
<text text-anchor="middle" x="1145.54" y="-434.38" font-family="Times,serif" font-size="14.00">Supplier Selection)</text>
</g>
<!-- Reason&#45;&gt;Procurement -->
<g id="edge8" class="edge">
<title>Reason&#45;&gt;Procurement</title>
<path fill="none" stroke="black" d="M886,-342.13C912.8,-362.99 949.34,-388.9 985.02,-406.08 1003.13,-414.8 1023.19,-422.25 1042.79,-428.48"/>
<polygon fill="black" stroke="black" points="1041.78,-431.83 1052.37,-431.44 1043.85,-425.14 1041.78,-431.83"/>
</g>
<!-- Inventory -->
<g id="node8" class="node">
<title>Inventory</title>
<ellipse fill="lightpink" stroke="black" cx="1145.54" cy="-360.08" rx="141.34" ry="37.45"/>
<text text-anchor="middle" x="1145.54" y="-371.38" font-family="Times,serif" font-size="14.00">Inventory/WMS</text>
<text text-anchor="middle" x="1145.54" y="-356.38" font-family="Times,serif" font-size="14.00">(Slotting, Replenishment,</text>
<text text-anchor="middle" x="1145.54" y="-341.38" font-family="Times,serif" font-size="14.00">Cycle Counts)</text>
</g>
<!-- Reason&#45;&gt;Inventory -->
<g id="edge9" class="edge">
<title>Reason&#45;&gt;Inventory</title>
<path fill="none" stroke="black" d="M949.36,-326.2C971.12,-329.98 994.3,-334 1016.81,-337.91"/>
<polygon fill="black" stroke="black" points="1016.29,-341.37 1026.74,-339.63 1017.49,-334.47 1016.29,-341.37"/>
</g>
<!-- HR -->
<g id="node9" class="node">
<title>HR</title>
<ellipse fill="lightpink" stroke="black" cx="1145.54" cy="-256.08" rx="113.27" ry="48.17"/>
<text text-anchor="middle" x="1145.54" y="-274.88" font-family="Times,serif" font-size="14.00">HR &amp; Payroll</text>
<text text-anchor="middle" x="1145.54" y="-259.88" font-family="Times,serif" font-size="14.00">(Resume Parsing,</text>
<text text-anchor="middle" x="1145.54" y="-244.88" font-family="Times,serif" font-size="14.00">Attrition Prediction,</text>
<text text-anchor="middle" x="1145.54" y="-229.88" font-family="Times,serif" font-size="14.00">Payroll Anomalies)</text>
</g>
<!-- Reason&#45;&gt;HR -->
<g id="edge10" class="edge">
<title>Reason&#45;&gt;HR</title>
<path fill="none" stroke="black" d="M949.36,-289.97C975.56,-285.42 1003.8,-280.52 1030.45,-275.89"/>
<polygon fill="black" stroke="black" points="1031.32,-279.29 1040.58,-274.13 1030.12,-272.39 1031.32,-279.29"/>
</g>
<!-- Manufacturing -->
<g id="node10" class="node">
<title>Manufacturing</title>
<ellipse fill="lightpink" stroke="black" cx="1145.54" cy="-152.08" rx="160.53" ry="37.45"/>
<text text-anchor="middle" x="1145.54" y="-163.38" font-family="Times,serif" font-size="14.00">Manufacturing/MES</text>
<text text-anchor="middle" x="1145.54" y="-148.38" font-family="Times,serif" font-size="14.00">(QC, Predictive Maintenance,</text>
<text text-anchor="middle" x="1145.54" y="-133.38" font-family="Times,serif" font-size="14.00">Scheduling)</text>
</g>
<!-- Reason&#45;&gt;Manufacturing -->
<g id="edge11" class="edge">
<title>Reason&#45;&gt;Manufacturing</title>
<path fill="none" stroke="black" d="M881,-273.86C907.83,-249.96 946.38,-218.91 985.02,-199.08 997.22,-192.83 1010.38,-187.27 1023.72,-182.38"/>
<polygon fill="black" stroke="black" points="1025.2,-185.57 1033.46,-178.93 1022.87,-178.97 1025.2,-185.57"/>
</g>
<!-- Sales -->
<g id="node11" class="node">
<title>Sales</title>
<ellipse fill="lightpink" stroke="black" cx="1145.54" cy="-48.08" rx="111.95" ry="48.17"/>
<text text-anchor="middle" x="1145.54" y="-66.88" font-family="Times,serif" font-size="14.00">Sales/CRM</text>
<text text-anchor="middle" x="1145.54" y="-51.88" font-family="Times,serif" font-size="14.00">(Order&#45;to&#45;Cash,</text>
<text text-anchor="middle" x="1145.54" y="-36.88" font-family="Times,serif" font-size="14.00">Lead Scoring,</text>
<text text-anchor="middle" x="1145.54" y="-21.88" font-family="Times,serif" font-size="14.00">Sentiment Insights)</text>
</g>
<!-- Reason&#45;&gt;Sales -->
<g id="edge12" class="edge">
<title>Reason&#45;&gt;Sales</title>
<path fill="none" stroke="black" d="M860.44,-273.9C882.18,-229.33 925.89,-151.67 985.02,-106.08 1001.07,-93.71 1020,-83.81 1039.11,-75.93"/>
<polygon fill="black" stroke="black" points="1040.48,-79.15 1048.49,-72.22 1037.91,-72.64 1040.48,-79.15"/>
</g>
<!-- Outputs -->
<g id="node12" class="node">
<title>Outputs</title>
<polygon fill="lightyellow" stroke="black" points="1595,-391.08 1393.82,-391.08 1342.07,-225.08 1543.25,-225.08 1595,-391.08"/>
<text text-anchor="middle" x="1468.53" y="-334.38" font-family="Times,serif" font-size="14.00">Outputs</text>
<text text-anchor="middle" x="1468.53" y="-319.38" font-family="Times,serif" font-size="14.00">(ERP Updates,</text>
<text text-anchor="middle" x="1468.53" y="-304.38" font-family="Times,serif" font-size="14.00">Payments,</text>
<text text-anchor="middle" x="1468.53" y="-289.38" font-family="Times,serif" font-size="14.00">Reports,</text>
<text text-anchor="middle" x="1468.53" y="-274.38" font-family="Times,serif" font-size="14.00">Alerts)</text>
</g>
<!-- Finance&#45;&gt;Outputs -->
<g id="edge13" class="edge">
<title>Finance&#45;&gt;Outputs</title>
<path fill="none" stroke="black" d="M1228.39,-536.39C1254.61,-527.46 1282.85,-515.26 1306.05,-499.08 1344.3,-472.41 1378.88,-434.51 1406.13,-399.49"/>
<polygon fill="black" stroke="black" points="1409.24,-401.19 1412.54,-391.13 1403.68,-396.93 1409.24,-401.19"/>
</g>
<!-- Procurement&#45;&gt;Outputs -->
<g id="edge14" class="edge">
<title>Procurement&#45;&gt;Outputs</title>
<path fill="none" stroke="black" d="M1237.43,-430.72C1260.25,-423.91 1284.4,-415.65 1306.05,-406.08 1329.62,-395.67 1353.93,-382.42 1376.31,-369.05"/>
<polygon fill="black" stroke="black" points="1378.37,-371.9 1385.12,-363.73 1374.75,-365.91 1378.37,-371.9"/>
</g>
<!-- Inventory&#45;&gt;Outputs -->
<g id="edge15" class="edge">
<title>Inventory&#45;&gt;Outputs</title>
<path fill="none" stroke="black" d="M1266.52,-340.65C1297.96,-335.55 1331.62,-330.1 1362.22,-325.14"/>
<polygon fill="black" stroke="black" points="1363.17,-328.54 1372.48,-323.48 1362.05,-321.63 1363.17,-328.54"/>
</g>
<!-- HR&#45;&gt;Outputs -->
<g id="edge16" class="edge">
<title>HR&#45;&gt;Outputs</title>
<path fill="none" stroke="black" d="M1251.64,-273.11C1283.87,-278.33 1319.5,-284.1 1352.36,-289.43"/>
<polygon fill="black" stroke="black" points="1352.04,-292.92 1362.47,-291.06 1353.15,-286.01 1352.04,-292.92"/>
</g>
<!-- Manufacturing&#45;&gt;Outputs -->
<g id="edge17" class="edge">
<title>Manufacturing&#45;&gt;Outputs</title>
<path fill="none" stroke="black" d="M1255.89,-179.43C1273.01,-185.09 1290.25,-191.64 1306.05,-199.08 1318.98,-205.17 1332.04,-212.22 1344.83,-219.74"/>
<polygon fill="black" stroke="black" points="1343.27,-222.89 1353.65,-225.02 1346.87,-216.88 1343.27,-222.89"/>
</g>
<!-- Sales&#45;&gt;Outputs -->
<g id="edge18" class="edge">
<title>Sales&#45;&gt;Outputs</title>
<path fill="none" stroke="black" d="M1241.48,-72.98C1263.86,-81.38 1286.78,-92.25 1306.05,-106.08 1347,-135.47 1383.08,-177.93 1410.7,-216.35"/>
<polygon fill="black" stroke="black" points="1408.18,-218.85 1416.82,-224.98 1413.9,-214.8 1408.18,-218.85"/>
</g>
</g>
</svg>
