<?xml version="1.0" encoding="UTF-8" standalone="no"?>
<!DOCTYPE svg PUBLIC "-//W3C//DTD SVG 1.1//EN"
 "http://www.w3.org/Graphics/SVG/1.1/DTD/svg11.dtd">
<!-- Generated by graphviz version 2.43.0 (0)
 -->
<!-- Title: ERP_Modular_Automation Pages: 1 -->
<svg width="720pt" height="260pt"
 viewBox="0.00 0.00 720.00 260.39" xmlns="http://www.w3.org/2000/svg" xmlns:xlink="http://www.w3.org/1999/xlink">
<g id="graph0" class="graph" transform="scale(0.42 0.42) rotate(0) translate(4 622.17)">
<title>ERP_Modular_Automation</title>
<polygon fill="white" stroke="transparent" points="-4,4 -4,-622.17 1727.37,-622.17 1727.37,4 -4,4"/>
<!-- Inputs -->
<g id="node1" class="node">
<title>Inputs</title>
<polygon fill="lightyellow" stroke="black" points="1099.75,-618.17 747.02,-618.17 656.29,-512.17 1009.01,-512.17 1099.75,-618.17"/>
<text text-anchor="middle" x="878.02" y="-576.47" font-family="Times,serif" font-size="14.00">Inputs</text>
<text text-anchor="middle" x="878.02" y="-561.47" font-family="Times,serif" font-size="14.00">(Documents, Voice, Images,</text>
<text text-anchor="middle" x="878.02" y="-546.47" font-family="Times,serif" font-size="14.00">Transactions, Sensors)</text>
</g>
<!-- NLP -->
<g id="node2" class="node">
<title>NLP</title>
<polygon fill="lightblue" stroke="black" points="781.02,-468.67 565.02,-468.67 565.02,-430.67 781.02,-430.67 781.02,-468.67"/>
<text text-anchor="middle" x="673.02" y="-453.47" font-family="Times,serif" font-size="14.00">NLP / NLU</text>
<text text-anchor="middle" x="673.02" y="-438.47" font-family="Times,serif" font-size="14.00">(Intent &amp; Entity Extraction)</text>
</g>
<!-- Inputs&#45;&gt;NLP -->
<g id="edge1" class="edge">
<title>Inputs&#45;&gt;NLP</title>
<path fill="none" stroke="black" d="M783.92,-512.07C759.64,-498.62 734.72,-484.83 714.68,-473.73"/>
<polygon fill="black" stroke="black" points="716.27,-470.62 705.83,-468.83 712.88,-476.74 716.27,-470.62"/>
</g>
<!-- Vision -->
<g id="node3" class="node">
<title>Vision</title>
<polygon fill="lightblue" stroke="black" points="956.52,-476.17 799.52,-476.17 799.52,-423.17 956.52,-423.17 956.52,-476.17"/>
<text text-anchor="middle" x="878.02" y="-460.97" font-family="Times,serif" font-size="14.00">Vision AI</text>
<text text-anchor="middle" x="878.02" y="-445.97" font-family="Times,serif" font-size="14.00">(OCR, QC, Barcode,</text>
<text text-anchor="middle" x="878.02" y="-430.97" font-family="Times,serif" font-size="14.00">Defect Detection)</text>
</g>
<!-- Inputs&#45;&gt;Vision -->
<g id="edge2" class="edge">
<title>Inputs&#45;&gt;Vision</title>
<path fill="none" stroke="black" d="M878.02,-512.07C878.02,-503.4 878.02,-494.58 878.02,-486.43"/>
<polygon fill="black" stroke="black" points="881.52,-486.18 878.02,-476.18 874.52,-486.18 881.52,-486.18"/>
</g>
<!-- Fraud -->
<g id="node4" class="node">
<title>Fraud</title>
<polygon fill="lightblue" stroke="black" points="1169.02,-476.17 975.02,-476.17 975.02,-423.17 1169.02,-423.17 1169.02,-476.17"/>
<text text-anchor="middle" x="1072.02" y="-460.97" font-family="Times,serif" font-size="14.00">Fraud Detection</text>
<text text-anchor="middle" x="1072.02" y="-445.97" font-family="Times,serif" font-size="14.00">(Anomaly, Duplication,</text>
<text text-anchor="middle" x="1072.02" y="-430.97" font-family="Times,serif" font-size="14.00">Suspicious Transactions)</text>
</g>
<!-- Inputs&#45;&gt;Fraud -->
<g id="edge3" class="edge">
<title>Inputs&#45;&gt;Fraud</title>
<path fill="none" stroke="black" d="M967.07,-512.07C985.05,-501.54 1003.4,-490.81 1019.63,-481.32"/>
<polygon fill="black" stroke="black" points="1021.54,-484.25 1028.41,-476.18 1018.01,-478.21 1021.54,-484.25"/>
</g>
<!-- Reason -->
<g id="node5" class="node">
<title>Reason</title>
<polygon fill="lightgreen" stroke="black" points="990.52,-387.17 765.52,-387.17 765.52,-334.17 990.52,-334.17 990.52,-387.17"/>
<text text-anchor="middle" x="878.02" y="-371.97" font-family="Times,serif" font-size="14.00">Reasoning Engine</text>
<text text-anchor="middle" x="878.02" y="-356.97" font-family="Times,serif" font-size="14.00">(Policy Checks, Optimization,</text>
<text text-anchor="middle" x="878.02" y="-341.97" font-family="Times,serif" font-size="14.00">Agent Orchestration)</text>
</g>
<!-- NLP&#45;&gt;Reason -->
<g id="edge4" class="edge">
<title>NLP&#45;&gt;Reason</title>
<path fill="none" stroke="black" d="M715.49,-430.64C742.28,-419.27 777.5,-404.32 808.31,-391.25"/>
<polygon fill="black" stroke="black" points="809.87,-394.39 817.71,-387.26 807.14,-387.94 809.87,-394.39"/>
</g>
<!-- Vision&#45;&gt;Reason -->
<g id="edge5" class="edge">
<title>Vision&#45;&gt;Reason</title>
<path fill="none" stroke="black" d="M878.02,-423.03C878.02,-415.05 878.02,-406.1 878.02,-397.55"/>
<polygon fill="black" stroke="black" points="881.52,-397.42 878.02,-387.42 874.52,-397.42 881.52,-397.42"/>
</g>
<!-- Fraud&#45;&gt;Reason -->
<g id="edge6" class="edge">
<title>Fraud&#45;&gt;Reason</title>
<path fill="none" stroke="black" d="M1015.12,-423.15C992.91,-413.19 967.3,-401.71 944.27,-391.38"/>
<polygon fill="black" stroke="black" points="945.47,-388.08 934.91,-387.18 942.6,-394.47 945.47,-388.08"/>
</g>
<!-- Finance -->
<g id="node6" class="node">
<title>Finance</title>
<ellipse fill="lightpink" stroke="black" cx="111.02" cy="-250.08" rx="111.03" ry="48.17"/>
<text text-anchor="middle" x="111.02" y="-268.88" font-family="Times,serif" font-size="14.00">Finance/AP&#45;AR</text>
<text text-anchor="middle" x="111.02" y="-253.88" font-family="Times,serif" font-size="14.00">Invoice Capture,</text>
<text text-anchor="middle" x="111.02" y="-238.88" font-family="Times,serif" font-size="14.00">3&#45;Way Match,</text>
<text text-anchor="middle" x="111.02" y="-223.88" font-family="Times,serif" font-size="14.00">Cash App, Treasury</text>
</g>
<!-- Reason&#45;&gt;Finance -->
<g id="edge7" class="edge">
<title>Reason&#45;&gt;Finance</title>
<path fill="none" stroke="black" d="M765.42,-358.43C635.1,-354.84 414.85,-342.05 231.02,-298.17 219.99,-295.53 208.63,-292.1 197.49,-288.28"/>
<polygon fill="black" stroke="black" points="198.38,-284.88 187.78,-284.84 196.04,-291.48 198.38,-284.88"/>
</g>
<!-- Procurement -->
<g id="node7" class="node">
<title>Procurement</title>
<ellipse fill="lightpink" stroke="black" cx="350.02" cy="-250.08" rx="109.7" ry="48.17"/>
<text text-anchor="middle" x="350.02" y="-268.88" font-family="Times,serif" font-size="14.00">Procurement</text>
<text text-anchor="middle" x="350.02" y="-253.88" font-family="Times,serif" font-size="14.00">Supplier Scoring,</text>
<text text-anchor="middle" x="350.02" y="-238.88" font-family="Times,serif" font-size="14.00">RFQs, PO Drafting,</text>
<text text-anchor="middle" x="350.02" y="-223.88" font-family="Times,serif" font-size="14.00">Contract Review</text>
</g>
<!-- Reason&#45;&gt;Procurement -->
<g id="edge8" class="edge">
<title>Reason&#45;&gt;Procurement</title>
<path fill="none" stroke="black" d="M765.21,-349.82C682.03,-340.87 566.67,-324.86 468.02,-298.17 457.58,-295.34 446.82,-291.88 436.24,-288.11"/>
<polygon fill="black" stroke="black" points="437.18,-284.73 426.58,-284.59 434.78,-291.31 437.18,-284.73"/>
</g>
<!-- Inventory -->
<g id="node8" class="node">
<title>Inventory</title>
<ellipse fill="lightpink" stroke="black" cx="601.02" cy="-250.08" rx="123.99" ry="48.17"/>
<text text-anchor="middle" x="601.02" y="-268.88" font-family="Times,serif" font-size="14.00">Inventory/WMS</text>
<text text-anchor="middle" x="601.02" y="-253.88" font-family="Times,serif" font-size="14.00">Cycle Counts,</text>
<text text-anchor="middle" x="601.02" y="-238.88" font-family="Times,serif" font-size="14.00">Slotting Optimization,</text>
<text text-anchor="middle" x="601.02" y="-223.88" font-family="Times,serif" font-size="14.00">ATP/CTP Predictions</text>
</g>
<!-- Reason&#45;&gt;Inventory -->
<g id="edge9" class="edge">
<title>Reason&#45;&gt;Inventory</title>
<path fill="none" stroke="black" d="M812.72,-334.07C778.07,-320.49 734.84,-303.54 696.49,-288.51"/>
<polygon fill="black" stroke="black" points="697.45,-285.12 686.86,-284.73 694.89,-291.64 697.45,-285.12"/>
</g>
<!-- Manufacturing -->
<g id="node9" class="node">
<title>Manufacturing</title>
<ellipse fill="lightpink" stroke="black" cx="878.02" cy="-250.08" rx="135.11" ry="48.17"/>
<text text-anchor="middle" x="878.02" y="-268.88" font-family="Times,serif" font-size="14.00">Manufacturing/MES</text>
<text text-anchor="middle" x="878.02" y="-253.88" font-family="Times,serif" font-size="14.00">Predictive Maintenance,</text>
<text text-anchor="middle" x="878.02" y="-238.88" font-family="Times,serif" font-size="14.00">QC, Scheduling,</text>
<text text-anchor="middle" x="878.02" y="-223.88" font-family="Times,serif" font-size="14.00">Energy Optimization</text>
</g>
<!-- Reason&#45;&gt;Manufacturing -->
<g id="edge10" class="edge">
<title>Reason&#45;&gt;Manufacturing</title>
<path fill="none" stroke="black" d="M878.02,-333.93C878.02,-326.19 878.02,-317.36 878.02,-308.42"/>
<polygon fill="black" stroke="black" points="881.52,-308.33 878.02,-298.33 874.52,-308.33 881.52,-308.33"/>
</g>
<!-- Sales -->
<g id="node10" class="node">
<title>Sales</title>
<ellipse fill="lightpink" stroke="black" cx="1141.02" cy="-250.08" rx="109.7" ry="48.17"/>
<text text-anchor="middle" x="1141.02" y="-268.88" font-family="Times,serif" font-size="14.00">Sales/CRM</text>
<text text-anchor="middle" x="1141.02" y="-253.88" font-family="Times,serif" font-size="14.00">Lead Scoring,</text>
<text text-anchor="middle" x="1141.02" y="-238.88" font-family="Times,serif" font-size="14.00">Price Optimization,</text>
<text text-anchor="middle" x="1141.02" y="-223.88" font-family="Times,serif" font-size="14.00">Sentiment Analysis</text>
</g>
<!-- Reason&#45;&gt;Sales -->
<g id="edge11" class="edge">
<title>Reason&#45;&gt;Sales</title>
<path fill="none" stroke="black" d="M940.01,-334.07C973.61,-320.2 1015.71,-302.82 1052.68,-287.55"/>
<polygon fill="black" stroke="black" points="1054.05,-290.77 1061.96,-283.72 1051.38,-284.3 1054.05,-290.77"/>
</g>
<!-- HR -->
<g id="node11" class="node">
<title>HR</title>
<ellipse fill="lightpink" stroke="black" cx="1382.02" cy="-250.08" rx="113.27" ry="48.17"/>
<text text-anchor="middle" x="1382.02" y="-268.88" font-family="Times,serif" font-size="14.00">HR &amp; Payroll</text>
<text text-anchor="middle" x="1382.02" y="-253.88" font-family="Times,serif" font-size="14.00">Resume Parsing,</text>
<text text-anchor="middle" x="1382.02" y="-238.88" font-family="Times,serif" font-size="14.00">Attrition Prediction,</text>
<text text-anchor="middle" x="1382.02" y="-223.88" font-family="Times,serif" font-size="14.00">Payroll Anomalies</text>
</g>
<!-- Reason&#45;&gt;HR -->
<g id="edge12" class="edge">
<title>Reason&#45;&gt;HR</title>
<path fill="none" stroke="black" d="M990.9,-347.77C1067.64,-338.16 1171.01,-322.22 1260.02,-298.17 1270.86,-295.23 1282.08,-291.68 1293.11,-287.84"/>
<polygon fill="black" stroke="black" points="1294.5,-291.06 1302.75,-284.41 1292.15,-284.47 1294.5,-291.06"/>
</g>
<!-- Support -->
<g id="node12" class="node">
<title>Support</title>
<ellipse fill="lightpink" stroke="black" cx="1618.02" cy="-250.08" rx="105.22" ry="48.17"/>
<text text-anchor="middle" x="1618.02" y="-268.88" font-family="Times,serif" font-size="14.00">Service &amp; Support</text>
<text text-anchor="middle" x="1618.02" y="-253.88" font-family="Times,serif" font-size="14.00">Chatbots,</text>
<text text-anchor="middle" x="1618.02" y="-238.88" font-family="Times,serif" font-size="14.00">SLA Prediction,</text>
<text text-anchor="middle" x="1618.02" y="-223.88" font-family="Times,serif" font-size="14.00">Knowledge Drafts</text>
</g>
<!-- Reason&#45;&gt;Support -->
<g id="edge13" class="edge">
<title>Reason&#45;&gt;Support</title>
<path fill="none" stroke="black" d="M990.52,-358.5C1117.14,-354.92 1328.14,-342.1 1504.02,-298.17 1514.43,-295.56 1525.15,-292.17 1535.63,-288.41"/>
<polygon fill="black" stroke="black" points="1537.04,-291.62 1545.19,-284.85 1534.6,-285.06 1537.04,-291.62"/>
</g>
<!-- Outputs -->
<g id="node13" class="node">
<title>Outputs</title>
<polygon fill="lightyellow" stroke="black" points="1041.63,-166 781.36,-166 714.4,0 974.68,0 1041.63,-166"/>
<text text-anchor="middle" x="878.02" y="-109.3" font-family="Times,serif" font-size="14.00">Outputs</text>
<text text-anchor="middle" x="878.02" y="-94.3" font-family="Times,serif" font-size="14.00">(ERP Updates,</text>
<text text-anchor="middle" x="878.02" y="-79.3" font-family="Times,serif" font-size="14.00">Payments,</text>
<text text-anchor="middle" x="878.02" y="-64.3" font-family="Times,serif" font-size="14.00">Reports,</text>
<text text-anchor="middle" x="878.02" y="-49.3" font-family="Times,serif" font-size="14.00">Alerts, Dashboards)</text>
</g>
<!-- Finance&#45;&gt;Outputs -->
<g id="edge14" class="edge">
<title>Finance&#45;&gt;Outputs</title>
<path fill="none" stroke="black" d="M189.34,-215.85C203.08,-210.74 217.35,-205.89 231.02,-202 405.21,-152.45 611.93,-119 744,-100.72"/>
<polygon fill="black" stroke="black" points="744.73,-104.15 754.16,-99.32 743.78,-97.22 744.73,-104.15"/>
</g>
<!-- Procurement&#45;&gt;Outputs -->
<g id="edge15" class="edge">
<title>Procurement&#45;&gt;Outputs</title>
<path fill="none" stroke="black" d="M428.63,-216.46C441.71,-211.4 455.18,-206.39 468.02,-202 561.61,-169.95 669.16,-139.22 750.61,-117.16"/>
<polygon fill="black" stroke="black" points="751.67,-120.5 760.41,-114.51 749.85,-113.74 751.67,-120.5"/>
</g>
<!-- Inventory&#45;&gt;Outputs -->
<g id="edge16" class="edge">
<title>Inventory&#45;&gt;Outputs</title>
<path fill="none" stroke="black" d="M667.72,-209.33C696.74,-192.03 731.58,-171.27 764.47,-151.67"/>
<polygon fill="black" stroke="black" points="766.44,-154.57 773.24,-146.44 762.86,-148.56 766.44,-154.57"/>
</g>
<!-- Manufacturing&#45;&gt;Outputs -->
<g id="edge17" class="edge">
<title>Manufacturing&#45;&gt;Outputs</title>
<path fill="none" stroke="black" d="M878.02,-201.78C878.02,-193.76 878.02,-185.21 878.02,-176.5"/>
<polygon fill="black" stroke="black" points="881.52,-176.23 878.02,-166.23 874.52,-176.23 881.52,-176.23"/>
</g>
<!-- Sales&#45;&gt;Outputs -->
<g id="edge18" class="edge">
<title>Sales&#45;&gt;Outputs</title>
<path fill="none" stroke="black" d="M1079.02,-210.17C1060.32,-198.43 1038.98,-185.04 1017.37,-171.47"/>
<polygon fill="black" stroke="black" points="1019.08,-168.41 1008.75,-166.06 1015.36,-174.34 1019.08,-168.41"/>
</g>
<!-- HR&#45;&gt;Outputs -->
<g id="edge19" class="edge">
<title>HR&#45;&gt;Outputs</title>
<path fill="none" stroke="black" d="M1300.27,-216.65C1286.88,-211.59 1273.1,-206.54 1260.02,-202 1186.89,-176.63 1105,-150.97 1035.85,-130.09"/>
<polygon fill="black" stroke="black" points="1036.76,-126.71 1026.17,-127.18 1034.74,-133.42 1036.76,-126.71"/>
</g>
<!-- Support&#45;&gt;Outputs -->
<g id="edge20" class="edge">
<title>Support&#45;&gt;Outputs</title>
<path fill="none" stroke="black" d="M1543.69,-215.83C1530.63,-210.72 1517.05,-205.88 1504.02,-202 1343.65,-154.32 1154.21,-121.79 1026.07,-103.15"/>
<polygon fill="black" stroke="black" points="1026.19,-99.63 1015.79,-101.66 1025.19,-106.56 1026.19,-99.63"/>
</g>
</g>
</svg>
